<svg id="visual" viewBox="0 0 1400 1100" width="1400" height="1100" xmlns="http://www.w3.org/2000/svg" xmlns:xlink="http://www.w3.org/1999/xlink" version="1.1"><rect x="0" y="0" width="1400" height="1100" fill="#f8d5fa"></rect><defs><linearGradient id="grad1_0" x1="21.4%" y1="0%" x2="100%" y2="100%"><stop offset="24.545454545454547%" stop-color="#fff8c2" stop-opacity="1"></stop><stop offset="75.45454545454545%" stop-color="#fff8c2" stop-opacity="1"></stop></linearGradient></defs><defs><linearGradient id="grad1_1" x1="21.4%" y1="0%" x2="100%" y2="100%"><stop offset="24.545454545454547%" stop-color="#fff8c2" stop-opacity="1"></stop><stop offset="75.45454545454545%" stop-color="#ffe9c2" stop-opacity="1"></stop></linearGradient></defs><defs><linearGradient id="grad1_2" x1="21.4%" y1="0%" x2="100%" y2="100%"><stop offset="24.545454545454547%" stop-color="#ffdcd2" stop-opacity="1"></stop><stop offset="75.45454545454545%" stop-color="#ffe9c2" stop-opacity="1"></stop></linearGradient></defs><defs><linearGradient id="grad1_3" x1="21.4%" y1="0%" x2="100%" y2="100%"><stop offset="24.545454545454547%" stop-color="#ffdcd2" stop-opacity="1"></stop><stop offset="75.45454545454545%" stop-color="#ffd5e8" stop-opacity="1"></stop></linearGradient></defs><defs><linearGradient id="grad1_4" x1="21.4%" y1="0%" x2="100%" y2="100%"><stop offset="24.545454545454547%" stop-color="#f8d5fa" stop-opacity="1"></stop><stop offset="75.45454545454545%" stop-color="#ffd5e8" stop-opacity="1"></stop></linearGradient></defs><defs><linearGradient id="grad2_0" x1="0%" y1="0%" x2="78.6%" y2="100%"><stop offset="24.545454545454547%" stop-color="#fff8c2" stop-opacity="1"></stop><stop offset="75.45454545454545%" stop-color="#fff8c2" stop-opacity="1"></stop></linearGradient></defs><defs><linearGradient id="grad2_1" x1="0%" y1="0%" x2="78.6%" y2="100%"><stop offset="24.545454545454547%" stop-color="#ffe9c2" stop-opacity="1"></stop><stop offset="75.45454545454545%" stop-color="#fff8c2" stop-opacity="1"></stop></linearGradient></defs><defs><linearGradient id="grad2_2" x1="0%" y1="0%" x2="78.6%" y2="100%"><stop offset="24.545454545454547%" stop-color="#ffe9c2" stop-opacity="1"></stop><stop offset="75.45454545454545%" stop-color="#ffdcd2" stop-opacity="1"></stop></linearGradient></defs><defs><linearGradient id="grad2_3" x1="0%" y1="0%" x2="78.6%" y2="100%"><stop offset="24.545454545454547%" stop-color="#ffd5e8" stop-opacity="1"></stop><stop offset="75.45454545454545%" stop-color="#ffdcd2" stop-opacity="1"></stop></linearGradient></defs><defs><linearGradient id="grad2_4" x1="0%" y1="0%" x2="78.6%" y2="100%"><stop offset="24.545454545454547%" stop-color="#ffd5e8" stop-opacity="1"></stop><stop offset="75.45454545454545%" stop-color="#f8d5fa" stop-opacity="1"></stop></linearGradient></defs><g transform="translate(1400, 0)"><path d="M0 890.2C-83.4 844.6 -166.9 798.9 -249.1 766.6C-331.2 734.2 -412.1 715 -493.7 679.6C-575.3 644.1 -657.6 592.3 -719.2 522.5C-780.8 452.8 -821.6 365.2 -846.7 275.1C-871.7 185 -881 92.5 -890.2 0L0 0Z" fill="#ffd5f2"></path><path d="M0 712.2C-66.8 675.7 -133.5 639.1 -199.3 613.2C-265 587.3 -329.7 572 -395 543.7C-460.3 515.3 -526.1 473.8 -575.4 418C-624.6 362.2 -657.3 292.1 -677.3 220.1C-697.4 148 -704.8 74 -712.2 0L0 0Z" fill="#ffd8dc"></path><path d="M0 534.1C-50.1 506.7 -100.1 479.4 -149.4 459.9C-198.7 440.5 -247.3 429 -296.2 407.7C-345.2 386.5 -394.6 355.4 -431.5 313.5C-468.5 271.7 -493 219.1 -508 165.1C-523 111 -528.6 55.5 -534.1 0L0 0Z" fill="#ffe2c8"></path><path d="M0 356.1C-33.4 337.8 -66.8 319.6 -99.6 306.6C-132.5 293.7 -164.9 286 -197.5 271.8C-230.1 257.6 -263.1 236.9 -287.7 209C-312.3 181.1 -328.6 146.1 -338.7 110C-348.7 74 -352.4 37 -356.1 0L0 0Z" fill="#fff0c0"></path><path d="M0 178C-16.7 168.9 -33.4 159.8 -49.8 153.3C-66.2 146.8 -82.4 143 -98.7 135.9C-115.1 128.8 -131.5 118.5 -143.8 104.5C-156.2 90.6 -164.3 73 -169.3 55C-174.3 37 -176.2 18.5 -178 0L0 0Z" fill="#fff8c2"></path></g><g transform="translate(0, 1100)"><path d="M0 -890.2C97.4 -884.9 194.9 -879.5 271.6 -836C348.4 -792.4 404.4 -710.7 475.5 -654.5C546.6 -598.2 632.7 -567.4 700.6 -509C768.5 -450.6 818.1 -364.5 846.7 -275.1C875.2 -185.7 882.7 -92.8 890.2 0L0 0Z" fill="#ffd5f2"></path><path d="M0 -712.2C78 -707.9 155.9 -703.6 217.3 -668.8C278.7 -634 323.5 -568.6 380.4 -523.6C437.3 -478.6 506.2 -454 560.5 -407.2C614.8 -360.5 654.5 -291.6 677.3 -220.1C700.2 -148.5 706.2 -74.3 712.2 0L0 0Z" fill="#ffd8dc"></path><path d="M0 -534.1C58.5 -530.9 116.9 -527.7 163 -501.6C209 -475.5 242.7 -426.4 285.3 -392.7C328 -358.9 379.6 -340.5 420.4 -305.4C461.1 -270.4 490.9 -218.7 508 -165.1C525.1 -111.4 529.6 -55.7 534.1 0L0 0Z" fill="#ffe2c8"></path><path d="M0 -356.1C39 -353.9 78 -351.8 108.7 -334.4C139.3 -317 161.8 -284.3 190.2 -261.8C218.6 -239.3 253.1 -227 280.2 -203.6C307.4 -180.2 327.2 -145.8 338.7 -110C350.1 -74.3 353.1 -37.1 356.1 0L0 0Z" fill="#fff0c0"></path><path d="M0 -178C19.5 -177 39 -175.9 54.3 -167.2C69.7 -158.5 80.9 -142.1 95.1 -130.9C109.3 -119.6 126.5 -113.5 140.1 -101.8C153.7 -90.1 163.6 -72.9 169.3 -55C175 -37.1 176.5 -18.6 178 0L0 0Z" fill="#fff8c2"></path></g></svg>